<?xml version="1.0" encoding="UTF-8" standalone="no"?>
<!DOCTYPE svg PUBLIC "-//W3C//DTD SVG 1.1//EN"
 "http://www.w3.org/Graphics/SVG/1.1/DTD/svg11.dtd">
<!-- Generated by graphviz version 2.43.0 (0)
 -->
<!-- Title: Pila Pages: 1 -->
<svg width="141pt" height="277pt"
 viewBox="0.00 0.00 141.00 277.00" xmlns="http://www.w3.org/2000/svg" xmlns:xlink="http://www.w3.org/1999/xlink">
<g id="graph0" class="graph" transform="scale(1 1) rotate(0) translate(4 273)">
<title>Pila</title>
<polygon fill="white" stroke="transparent" points="-4,4 -4,-273 137,-273 137,4 -4,4"/>
<!-- pila -->
<g id="node1" class="node">
<title>pila</title>
<polygon fill="none" stroke="black" points="8.5,-235.5 8.5,-264.5 125.5,-264.5 125.5,-235.5 8.5,-235.5"/>
<text text-anchor="start" x="20" y="-247.3" font-family="Helvetica,sans-Serif" font-weight="bold" font-size="14.00" fill="white">Paso 44 &#45; Shift</text>
<polygon fill="none" stroke="black" points="8.5,-206.5 8.5,-235.5 125.5,-235.5 125.5,-206.5 8.5,-206.5"/>
<text text-anchor="start" x="29" y="-217.3" font-family="Helvetica,sans-Serif" font-size="14.00">esto &#160;&#160;(cima)</text>
<polygon fill="none" stroke="black" points="8.5,-177.5 8.5,-206.5 125.5,-206.5 125.5,-177.5 8.5,-177.5"/>
<text text-anchor="start" x="15.5" y="-188.3" font-family="Helvetica,sans-Serif" font-size="14.00">campoEstructura</text>
<polygon fill="none" stroke="black" points="8.5,-148.5 8.5,-177.5 125.5,-177.5 125.5,-148.5 8.5,-148.5"/>
<text text-anchor="start" x="64.5" y="-159.3" font-family="Helvetica,sans-Serif" font-size="14.00">{</text>
<polygon fill="none" stroke="black" points="8.5,-119.5 8.5,-148.5 125.5,-148.5 125.5,-119.5 8.5,-119.5"/>
<text text-anchor="start" x="39.5" y="-130.3" font-family="Helvetica,sans-Serif" font-size="14.00">Producto</text>
<polygon fill="none" stroke="black" points="8.5,-90.5 8.5,-119.5 125.5,-119.5 125.5,-90.5 8.5,-90.5"/>
<text text-anchor="start" x="40.5" y="-101.3" font-family="Helvetica,sans-Serif" font-size="14.00">structura</text>
<polygon fill="none" stroke="black" points="8.5,-61.5 8.5,-90.5 125.5,-90.5 125.5,-61.5 8.5,-61.5"/>
<text text-anchor="start" x="32" y="-72.3" font-family="Helvetica,sans-Serif" font-size="14.00">declaracion</text>
<polygon fill="none" stroke="black" points="8.5,-32.5 8.5,-61.5 125.5,-61.5 125.5,-32.5 8.5,-32.5"/>
<text text-anchor="start" x="62.5" y="-43.3" font-family="Helvetica,sans-Serif" font-size="14.00">&gt;</text>
<polygon fill="none" stroke="black" points="8.5,-3.5 8.5,-32.5 125.5,-32.5 125.5,-3.5 8.5,-3.5"/>
<text text-anchor="start" x="27.5" y="-14.3" font-family="Helvetica,sans-Serif" font-size="14.00">VARIABILES</text>
</g>
</g>
</svg>
